<?xml version="1.0" encoding="iso-8859-1"?>
<!-- Generator: Adobe Illustrator 19.0.0, SVG Export Plug-In . SVG Version: 6.00 Build 0)  -->
<svg fill="#ffffff" version="1.1" id="pilot-logo" xmlns="http://www.w3.org/2000/svg" xmlns:xlink="http://www.w3.org/1999/xlink" x="0px" y="0px"
	 viewBox="0 0 512 512" style="enable-background:new 0 0 512 512;" xml:space="preserve">
<g>
	<g>
		<path d="M463.84,195.289h-1.38v-6.608C462.46,84.642,377.817,0,273.778,0H238.22C134.181,0,49.539,84.642,49.539,188.681v6.608
			h-1.38c-16.333,0-29.621,13.288-29.621,29.621v105.403c0,16.333,13.288,29.621,29.621,29.621h1.865
			c3.804,31.12,30.374,55.306,62.505,55.306h87.531c2.45,4.951,7.539,8.364,13.437,8.364h38.464c8.284,0,15-6.716,15-15v-16.729
			c0-8.284-6.716-15-15-15h-38.464c-5.898,0-10.987,3.413-13.437,8.364H112.53c-15.544,0-28.604-10.811-32.077-25.306h0.467
			c16.333,0,29.621-13.288,29.621-29.621v-16.475l-10.567-2.01c-21.563-3.618-37.197-22.091-37.197-43.973v-58.84
			c0-19.31,13.152-35.78,31.983-40.053l27.894-6.329c87.238-19.793,179.457-19.793,266.693,0l27.894,6.329
			c18.831,4.272,31.983,20.743,31.983,40.053v58.84c0,21.882-15.635,40.354-37.197,43.973l-10.567,2.01v16.475
			c0,16.333,13.288,29.621,29.621,29.621h1.38V497c0,8.284,6.716,15,15,15s15-6.716,15-15V359.935h1.38
			c16.333,0,29.621-13.288,29.621-29.621V224.91C493.46,208.577,480.173,195.289,463.84,195.289z"/>
	</g>
</g>
<g>
	<g>
		<path d="M412.814,188.468l-27.894-6.329c-42.17-9.568-85.546-14.353-128.921-14.353s-86.751,4.785-128.921,14.353l-27.894,6.329
			c-9.661,2.192-16.409,10.643-16.409,20.549v58.84c0,12.091,8.655,22.294,20.579,24.26l0.241,0.043l101.521,19.307
			c16.279,3.095,32.12-7.084,36.06-23.172l0.135-0.495L256,238.842l14.688,48.958l0.135,0.495
			c3.939,16.088,19.78,26.267,36.06,23.172l101.521-19.307l0.241-0.043c11.924-1.966,20.579-12.169,20.579-24.26v-58.84
			C429.225,199.11,422.476,190.66,412.814,188.468z"/>
	</g>
</g>

</svg>
